<?xml version="1.0" encoding="UTF-8"?>
<svg id="Layer_1" data-name="Layer 1" xmlns="http://www.w3.org/2000/svg" viewBox="41.81 240.31 1010.44 255.00">
  <defs>
    <style>
      .cls-1 {
        fill: #18b6a7;
      }

      .cls-2 {
        fill: #fff;
      }

      .cls-3 {
        fill: #eea228;
      }
    </style>
  </defs>
  <g>
    <path class="cls-1" d="m351.37,392.41c-7.17,0-13.35-1.56-18.55-4.68-5.2-3.12-9.2-7.49-12-13.1-2.81-5.61-4.21-12.13-4.21-19.57s1.4-13.96,4.21-19.57c2.8-5.61,6.81-9.98,12-13.1,5.2-3.12,11.38-4.68,18.55-4.68s13.35,1.56,18.55,4.68c5.2,3.12,9.2,7.49,12,13.1,2.8,5.61,4.21,12.13,4.21,19.57s-1.4,13.96-4.21,19.57c-2.81,5.61-6.81,9.98-12,13.1-5.2,3.12-11.38,4.68-18.55,4.68Zm0-12.75c4.55.07,8.33-.91,11.36-2.94,3.02-2.02,5.29-4.9,6.8-8.62,1.51-3.72,2.27-8.07,2.27-13.05s-.76-9.3-2.27-12.95c-1.51-3.65-3.78-6.49-6.8-8.52-3.02-2.03-6.81-3.07-11.36-3.14-4.55-.07-8.33.91-11.35,2.94-3.02,2.03-5.29,4.9-6.8,8.62-1.51,3.72-2.27,8.07-2.27,13.05s.75,9.3,2.27,12.95c1.51,3.65,3.78,6.49,6.8,8.52,3.02,2.02,6.81,3.07,11.35,3.14Z"/>
    <path class="cls-1" d="m395.99,390.92v-53.78h12.05v17.83h1.69v35.96h-13.74Zm36.75,0v-25.4c0-1.23-.07-2.8-.2-4.71-.13-1.91-.55-3.83-1.24-5.75-.7-1.92-1.84-3.54-3.41-4.83-1.58-1.29-3.81-1.94-6.7-1.94-1.16,0-2.41.18-3.73.55-1.33.37-2.57,1.07-3.73,2.12-1.16,1.05-2.12,2.58-2.86,4.61-.75,2.03-1.12,4.71-1.12,8.07l-7.77-3.69c0-4.25.86-8.23,2.59-11.95,1.73-3.72,4.32-6.72,7.79-9.01,3.47-2.29,7.84-3.44,13.12-3.44,4.21,0,7.65.71,10.31,2.14,2.66,1.43,4.72,3.24,6.2,5.43s2.53,4.47,3.16,6.85c.63,2.37,1.01,4.54,1.15,6.5.13,1.96.2,3.39.2,4.28v30.18h-13.74Z"/>
    <path class="cls-1" d="m483.43,392.41c-5.51,0-10.37-1.19-14.57-3.56-4.2-2.37-7.49-5.64-9.86-9.81-2.37-4.17-3.56-8.94-3.56-14.32,0-5.88,1.16-10.99,3.48-15.34,2.32-4.35,5.53-7.73,9.61-10.13,4.08-2.41,8.78-3.61,14.09-3.61,5.64,0,10.44,1.33,14.39,3.98,3.95,2.66,6.87,6.39,8.76,11.2,1.89,4.81,2.56,10.47,1.99,16.98h-13.4v-4.98c0-5.48-.87-9.42-2.61-11.83-1.74-2.41-4.59-3.61-8.54-3.61-4.62,0-8.01,1.4-10.18,4.21-2.18,2.81-3.26,6.95-3.26,12.42,0,5.01,1.09,8.89,3.26,11.63,2.17,2.74,5.37,4.11,9.59,4.11,2.66,0,4.93-.58,6.82-1.74,1.89-1.16,3.34-2.84,4.33-5.03l13.55,3.88c-2.03,4.91-5.22,8.73-9.59,11.45-4.37,2.72-9.14,4.08-14.32,4.08Zm-17.83-24.6v-10.06h35.66v10.06h-35.66Z"/>
    <path class="cls-1" d="m550.81,392.41c-7.17,0-13.35-1.56-18.55-4.68-5.2-3.12-9.2-7.49-12-13.1-2.81-5.61-4.21-12.13-4.21-19.57s1.4-13.96,4.21-19.57c2.8-5.61,6.81-9.98,12-13.1,5.2-3.12,11.38-4.68,18.55-4.68,8.23,0,15.15,2.04,20.74,6.13,5.59,4.08,9.54,9.61,11.83,16.58l-13.64,3.78c-1.33-4.35-3.57-7.73-6.72-10.13-3.15-2.41-7.22-3.61-12.2-3.61-4.55,0-8.34,1.01-11.38,3.04-3.04,2.03-5.32,4.88-6.85,8.57-1.53,3.69-2.29,8.02-2.29,13s.76,9.31,2.29,13c1.53,3.69,3.81,6.54,6.85,8.57,3.04,2.03,6.83,3.04,11.38,3.04,4.98,0,9.05-1.21,12.2-3.63,3.15-2.42,5.39-5.79,6.72-10.11l13.64,3.78c-2.29,6.97-6.23,12.5-11.83,16.58-5.59,4.08-12.51,6.13-20.74,6.13Z"/>
    <path class="cls-1" d="m618.53,392.41c-5.41,0-10.16-1.21-14.24-3.63-4.08-2.42-7.26-5.77-9.54-10.04-2.27-4.27-3.41-9.17-3.41-14.72s1.16-10.55,3.48-14.82c2.32-4.27,5.53-7.59,9.61-9.98,4.08-2.39,8.78-3.59,14.09-3.59s10.17,1.21,14.27,3.64c4.1,2.42,7.3,5.77,9.59,10.03,2.29,4.27,3.44,9.17,3.44,14.72s-1.16,10.5-3.46,14.77c-2.31,4.27-5.51,7.6-9.61,10.01-4.1,2.41-8.84,3.61-14.22,3.61Zm0-12.65c4.35,0,7.6-1.47,9.74-4.41,2.14-2.94,3.21-6.71,3.21-11.33s-1.09-8.6-3.26-11.45c-2.18-2.85-5.4-4.28-9.69-4.28-2.95,0-5.38.66-7.27,1.99-1.89,1.33-3.29,3.17-4.21,5.53-.91,2.36-1.37,5.1-1.37,8.22,0,4.81,1.09,8.64,3.26,11.48,2.17,2.84,5.37,4.26,9.59,4.26Z"/>
    <path class="cls-1" d="m656.68,390.92v-53.78h12.05v17.83h1.69v35.96h-13.74Zm36.75,0v-25.4c0-1.23-.07-2.8-.2-4.71-.13-1.91-.55-3.83-1.24-5.75-.7-1.92-1.84-3.54-3.41-4.83-1.58-1.29-3.81-1.94-6.7-1.94-1.16,0-2.41.18-3.73.55-1.33.37-2.57,1.07-3.73,2.12-1.16,1.05-2.12,2.58-2.86,4.61-.75,2.03-1.12,4.71-1.12,8.07l-7.77-3.69c0-4.25.86-8.23,2.59-11.95,1.73-3.72,4.32-6.72,7.79-9.01,3.47-2.29,7.84-3.44,13.12-3.44,4.21,0,7.65.71,10.31,2.14,2.66,1.43,4.72,3.24,6.2,5.43,1.48,2.19,2.53,4.47,3.16,6.85.63,2.37,1.01,4.54,1.15,6.5.13,1.96.2,3.39.2,4.28v30.18h-13.74Z"/>
    <path class="cls-1" d="m742.83,392.41c-5.58,0-10.36-1.24-14.34-3.73-3.98-2.49-7.04-5.88-9.16-10.16-2.12-4.28-3.19-9.11-3.19-14.49s1.1-10.31,3.31-14.59c2.21-4.28,5.32-7.65,9.34-10.11,4.02-2.46,8.77-3.69,14.24-3.69,6.34,0,11.66,1.6,15.96,4.81,4.3,3.2,7.05,7.58,8.24,13.12l-13.55,3.59c-.8-2.79-2.18-4.96-4.16-6.52-1.98-1.56-4.21-2.34-6.7-2.34-2.86,0-5.2.69-7.02,2.07-1.83,1.38-3.17,3.25-4.03,5.63-.86,2.37-1.29,5.05-1.29,8.04,0,4.68,1.04,8.47,3.11,11.38s5.15,4.36,9.24,4.36c3.05,0,5.38-.7,6.97-2.09,1.59-1.39,2.79-3.39,3.59-5.98l13.84,2.89c-1.53,5.71-4.42,10.11-8.67,13.2-4.25,3.09-9.5,4.63-15.74,4.63Z"/>
    <path class="cls-1" d="m799.9,392.41c-5.41,0-10.16-1.21-14.24-3.63-4.08-2.42-7.26-5.77-9.54-10.04-2.27-4.27-3.41-9.17-3.41-14.72s1.16-10.55,3.48-14.82c2.32-4.27,5.53-7.59,9.61-9.98,4.08-2.39,8.78-3.59,14.09-3.59s10.17,1.21,14.27,3.64c4.1,2.42,7.3,5.77,9.59,10.03,2.29,4.27,3.44,9.17,3.44,14.72s-1.16,10.5-3.46,14.77c-2.31,4.27-5.51,7.6-9.61,10.01-4.1,2.41-8.84,3.61-14.22,3.61Zm0-12.65c4.35,0,7.6-1.47,9.74-4.41,2.14-2.94,3.21-6.71,3.21-11.33s-1.09-8.6-3.26-11.45c-2.18-2.85-5.4-4.28-9.69-4.28-2.95,0-5.38.66-7.27,1.99-1.89,1.33-3.29,3.17-4.21,5.53-.91,2.36-1.37,5.1-1.37,8.22,0,4.81,1.09,8.64,3.26,11.48,2.17,2.84,5.37,4.26,9.59,4.26Z"/>
    <path class="cls-1" d="m838.15,390.92v-53.78h11.95v13.15l-1.29-1.69c.7-1.86,1.63-3.55,2.79-5.08,1.16-1.53,2.59-2.79,4.28-3.78,1.29-.8,2.71-1.42,4.23-1.87,1.53-.45,3.1-.73,4.73-.85,1.63-.12,3.25-.07,4.88.12v12.65c-1.49-.46-3.23-.62-5.2-.47-1.98.15-3.76.61-5.35,1.37-1.59.73-2.94,1.7-4.03,2.91-1.1,1.21-1.93,2.64-2.49,4.28-.57,1.64-.85,3.49-.85,5.55v27.49h-13.65Z"/>
    <path class="cls-1" d="m900,392.41c-4.95,0-9.28-1.24-13-3.73-3.72-2.49-6.61-5.88-8.69-10.16-2.08-4.28-3.11-9.11-3.11-14.49s1.05-10.35,3.16-14.62c2.11-4.27,5.07-7.63,8.89-10.08,3.82-2.46,8.3-3.69,13.45-3.69s9.41,1.25,12.9,3.73c3.49,2.49,6.13,5.88,7.92,10.16,1.79,4.28,2.69,9.11,2.69,14.49s-.91,10.21-2.71,14.49c-1.81,4.28-4.51,7.67-8.09,10.16-3.59,2.49-8.05,3.73-13.4,3.73Zm2.19-12.05c3.02,0,5.44-.68,7.25-2.04,1.81-1.36,3.11-3.27,3.91-5.73.8-2.46,1.2-5.31,1.2-8.57s-.4-6.11-1.2-8.57c-.8-2.46-2.07-4.37-3.81-5.73-1.74-1.36-4.03-2.04-6.85-2.04-3.02,0-5.5.74-7.44,2.22-1.94,1.48-3.38,3.45-4.31,5.93-.93,2.47-1.39,5.2-1.39,8.19s.45,5.77,1.34,8.24c.9,2.47,2.27,4.44,4.13,5.9,1.86,1.46,4.25,2.19,7.17,2.19Zm12.35,10.56v-36.85h-1.69v-34.86h13.65v71.71h-11.95Z"/>
    <path class="cls-2" d="m952.7,390.92l21.91-71.71h20.22l21.91,71.71h-13.94l-19.52-63.25h2.59l-19.22,63.25h-13.94Zm13.15-14.94v-12.65h37.85v12.65h-37.85Z"/>
    <path class="cls-2" d="m1026.7,390.92v-71.71h13.55v71.71h-13.55Z"/>
  </g>
  <g>
    <circle class="cls-3" cx="169.32" cy="367.81" r="37.08"/>
    <g>
      <path class="cls-1" d="m250.99,286.14c-21.82-21.82-50.82-33.83-81.68-33.83s-59.86,12.02-81.67,33.83c-21.82,21.81-33.83,50.82-33.83,81.67s12.02,59.86,33.83,81.67c21.81,21.82,50.82,33.83,81.67,33.83s59.86-12.02,81.68-33.83c21.81-21.81,33.83-50.82,33.83-81.67s-12.02-59.86-33.83-81.67Zm-81.68,195.19c-62.59,0-113.52-50.93-113.52-113.52s50.93-113.52,113.52-113.52,113.52,50.93,113.52,113.52-50.93,113.52-113.52,113.52Z"/>
      <path class="cls-1" d="m178.69,288.57s-.08-.01-.12-.01c-3.04-.36-6.13-.54-9.26-.54-3.91,0-7.77.28-11.53.84-.04,0-.08,0-.11.02-38.5,5.65-68.15,38.89-68.15,78.94,0,10.35,1.98,20.24,5.58,29.32,2.58,6.51,5.99,12.61,10.11,18.15,14.55,19.6,37.86,32.32,64.1,32.32s48.92-12.38,63.5-31.53c4.02-5.28,7.4-11.07,10.02-17.25,4.04-9.54,6.28-20.02,6.28-31.01,0-40.83-30.82-74.59-70.42-79.24Zm62.55,108.88c-2.66,6.46-6.17,12.48-10.39,17.92-14.24,18.39-36.53,30.24-61.53,30.24s-48.21-12.35-62.4-31.39c-4.09-5.48-7.48-11.51-10.01-17.98-3.48-8.81-5.39-18.41-5.39-28.44,0-38.99,28.83-71.37,66.3-76.95.05,0,.09-.01.14-.02,3.71-.55,7.51-.83,11.37-.83,3.1,0,6.15.18,9.16.54.05,0,.09,0,.13.01,38.54,4.6,68.52,37.49,68.52,77.25,0,10.49-2.09,20.5-5.88,29.64Z"/>
      <path class="cls-1" d="m240.63,397.05c-4.64-2.78-10.57-1.53-13.72,2.74l-17.27-10.37-1.02,1.7,17.27,10.37c-2.29,4.78-.6,10.61,4.03,13.4,4.93,2.96,11.32,1.36,14.27-3.57,2.96-4.93,1.36-11.32-3.57-14.27Z"/>
      <path class="cls-1" d="m157.78,288.76c-.02,5.41,4.09,9.87,9.36,10.4l-.09,20.14h1.98s.09-20.13.09-20.13c5.28-.48,9.43-4.9,9.46-10.31.03-5.74-4.61-10.42-10.35-10.45-5.74-.03-10.42,4.61-10.45,10.35Z"/>
    </g>
  </g>
</svg>